<svg width="512" height="512" viewBox="0 0 512 512" fill="none" xmlns="http://www.w3.org/2000/svg">
<path opacity="0.972" fill-rule="evenodd" clip-rule="evenodd" d="M394.634 147.733C395 146.5 397 147.123 398.927 147.733C406.129 150.02 410.69 154.853 412.61 162.231C412.878 212.524 412.968 262.818 412.878 313.113C403.591 312.316 397.599 307.484 394.902 298.615C394.634 248.321 394.545 198.027 394.634 147.733Z" fill="white"/>
<path opacity="0.972" fill-rule="evenodd" clip-rule="evenodd" d="M146.195 170.822C170.114 168.862 190.236 176.559 206.561 193.91C217.293 207.155 228.024 220.399 238.756 233.644C244.093 203.248 261.353 183.112 290.536 173.238C294.237 172.233 297.993 171.517 301.805 171.09C328.633 170.822 355.463 170.732 382.293 170.822C382.919 185.138 376.122 192.387 361.902 192.568C380.447 212.654 386.26 236.011 379.341 262.639C369.709 290.712 350.302 307.447 321.122 312.844C299.784 315.651 280.825 310.282 264.244 296.735C258.948 291.258 253.85 285.62 248.951 279.822C231.244 257.628 213.536 235.434 195.829 213.24C187.806 203.812 177.879 197.279 166.049 193.642C138.754 189.085 119.169 199.198 107.293 223.979C100.24 245.415 104.622 264.118 120.439 280.09C141.72 296.234 163.363 296.771 185.366 281.701C195.694 272.751 202.044 261.564 204.415 248.142C220.667 268.523 237.122 288.747 253.78 308.817C254.138 309.354 254.138 309.891 253.78 310.428C244.778 316.35 235.924 316.082 227.219 309.622C221.025 302.53 215.033 295.281 209.244 287.876C190.221 308.898 166.701 316.862 138.683 311.77C113.627 305.849 96.3671 290.904 86.9023 266.935C77.554 236.968 83.9036 210.926 105.951 188.809C117.594 178.812 131.009 172.816 146.195 170.822ZM303.415 192.299C323.629 191.007 339.816 198.346 351.975 214.314C365.985 238.848 362.855 260.952 342.585 280.627C322.534 295.188 301.965 295.904 280.878 282.775C262.57 268.591 256.22 250.246 261.829 227.738C268.875 207.889 282.737 196.076 303.415 192.299Z" fill="white"/>
<path opacity="0.953" fill-rule="evenodd" clip-rule="evenodd" d="M36.0001 246C35.5 245 34.5 240.5 36.7317 237.401C38.9635 234.302 55.5717 210.455 65.7073 197.398C70.398 199.876 72.7233 203.903 72.683 209.48C72.648 212.305 72.022 214.989 70.8049 217.534C64.7093 225.692 58.7174 233.925 52.8293 242.233C59.264 250.815 65.4348 259.585 71.3415 268.544C73.4509 275.634 71.7517 281.629 66.2439 286.531C65.7977 286.901 65.4399 286.811 65.1708 286.263C56.627 274.355 47.9522 262.542 39.1464 250.825C37.8863 249.148 36.5003 247 36.0001 246Z" fill="white"/>
<path opacity="0.989" fill-rule="evenodd" clip-rule="evenodd" d="M435.415 196.594C436.419 196.786 437.224 197.323 437.829 198.205C445.85 209.631 454.077 220.907 462.512 232.032C466.193 237.826 466.371 243.732 463.049 249.751C454.106 261.922 445.163 274.093 436.22 286.264C428.36 279.189 427.466 271.315 433.537 262.638C438.85 255.713 443.947 248.643 448.829 241.429C443.575 233.689 438.119 226.082 432.463 218.609C427.869 210.529 428.853 203.191 435.415 196.594Z" fill="white"/>
<path opacity="0.978" fill-rule="evenodd" clip-rule="evenodd" d="M253.512 324.386C255.537 324.259 257.504 324.527 259.415 325.192C287.681 347.226 317.909 350.269 350.098 334.32C354.36 331.665 358.473 328.801 362.439 325.729C368.804 323.136 373.902 324.657 377.732 330.293C378.513 332.57 378.693 334.896 378.268 337.273C354.073 359.957 325.545 368.459 292.683 362.778C274.086 358.979 258.078 350.477 244.658 337.273C244.194 330.508 247.145 326.212 253.512 324.386Z" fill="#F16415"/>
</svg>
